<?xml version="1.0" encoding="utf-8"?>
<!-- Generator: Adobe Illustrator 28.0.0, SVG Export Plug-In . SVG Version: 6.00 Build 0)  -->
<svg version="1.1" id="Cog" xmlns="http://www.w3.org/2000/svg" xmlns:xlink="http://www.w3.org/1999/xlink" x="0px" y="0px"
	 viewBox="0 0 20 20" style="enable-background:new 0 0 20 20;" xml:space="preserve">
<style type="text/css">
	.st0{fill:#FFFFFF;}
</style>
<path class="st0" d="M16.8,10c0-1,0.6-1.9,1.6-2.4C18.2,7,18,6.4,17.7,5.9c-1.1,0.3-2-0.1-2.7-0.9c-0.7-0.7-1-1.6-0.7-2.7
	c-0.5-0.3-1.1-0.5-1.7-0.7c-0.6,1-1.6,1.6-2.6,1.6c-1,0-2.1-0.6-2.6-1.6C6.8,1.8,6.2,2,5.7,2.3C6,3.4,5.7,4.3,5,5
	C4.3,5.7,3.4,6.2,2.3,5.9C2,6.4,1.8,7,1.6,7.6C2.6,8.1,3.2,9,3.2,10c0,1-0.6,2.1-1.6,2.6c0.2,0.6,0.4,1.1,0.7,1.7
	C3.4,14,4.3,14.3,5,15c0.7,0.7,1,1.6,0.7,2.7c0.5,0.3,1.1,0.5,1.7,0.7c0.6-1,1.6-1.6,2.6-1.6c1,0,2.1,0.6,2.6,1.6
	c0.6-0.2,1.1-0.4,1.7-0.7c-0.3-1.1-0.1-2,0.7-2.7c0.7-0.7,1.6-1.2,2.7-0.9c0.3-0.5,0.5-1.1,0.7-1.7C17.4,11.9,16.8,11,16.8,10z
	 M10,13.7c-2,0-3.7-1.6-3.7-3.7C6.3,8,8,6.3,10,6.3c2,0,3.7,1.6,3.7,3.7C13.7,12,12,13.7,10,13.7z"/>
</svg>
