<svg width="101" height="101" viewBox="0 0 101 101" fill="none" xmlns="http://www.w3.org/2000/svg">
<path fill-rule="evenodd" clip-rule="evenodd" d="M50.97 95.9108C75.7456 95.9108 95.8367 75.804 95.8367 51.0091C95.8367 26.2143 75.7456 6.10747 50.97 6.10747C26.1945 6.10747 6.10343 26.2143 6.10343 51.0091C6.10343 75.804 26.1945 95.9108 50.97 95.9108ZM46.2856 77.0542C46.2856 73.8246 51.3864 73.5121 51.3864 77.2625C51.3864 80.4921 46.2856 80.8047 46.2856 77.0542ZM51.3864 69.5532C51.4905 72.887 46.4938 73.0953 46.3897 69.7616C45.5569 46.321 64.8152 54.3429 64.8152 40.0702C64.8152 29.6522 50.2414 22.3596 41.3929 31.5274C38.8946 34.1319 37.3331 37.7783 37.3331 41.8413C37.3331 45.175 32.2322 45.175 32.2322 41.8413C32.2322 24.9641 51.6987 15.7962 64.2947 27.5686C67.73 30.7982 69.916 35.1737 69.916 40.0702C69.8119 58.7185 50.6578 49.6548 51.3864 69.5532ZM86.2596 86.3262C66.7931 105.808 35.147 105.808 15.5764 86.3262C-3.99416 66.8445 -3.89006 35.1737 15.5764 15.5879C35.0429 -3.99801 66.689 -3.89383 86.2596 15.5879C105.83 35.1737 105.83 66.8445 86.2596 86.3262Z" fill="white"/>
</svg>
