<svg width="100" height="100" viewBox="0 0 100 100" fill="none" xmlns="http://www.w3.org/2000/svg">
<path d="M2.5 50C2.5 23.7557 23.7557 2.5 50 2.5C76.2443 2.5 97.5 23.7557 97.5 50C97.5 76.2443 76.2443 97.5 50 97.5C23.7557 97.5 2.5 76.2443 2.5 50Z" stroke="white" stroke-width="5"/>
<path fill-rule="evenodd" clip-rule="evenodd" d="M53.0487 73.9259V74.1404C53.0487 76.2846 51.3333 78 49.1891 78C47.0448 78 45.3294 76.2846 45.3294 74.1404V73.9259C45.3294 71.7817 47.0448 70.0663 49.1891 70.0663C51.3333 70.0663 53.0487 71.7817 53.0487 73.9259Z" fill="white"/>
<path fill-rule="evenodd" clip-rule="evenodd" d="M60.6608 27.8246C63.6628 30.8265 65.2709 34.7934 65.1637 39.0819C64.9493 48.9454 60.3392 51.9474 56.9084 54.1988C53.9064 56.1286 51.8694 57.4152 52.191 63.7407C52.2982 65.4561 51.0117 66.8499 49.2963 66.9571H49.1891C47.5809 66.9571 46.1871 65.6705 46.0799 64.0624C45.6511 54.1988 50.0468 51.3041 53.5848 49.0526C56.6939 47.1228 58.8382 45.6218 58.9454 38.9747C58.9454 36.4016 57.9805 34.0429 56.1579 32.1131C54.2281 30.1832 51.7622 29.1111 49.0819 29.1111C43.614 29.1111 39.2183 33.5068 39.2183 38.9747C39.2183 40.69 37.8246 42.0838 36.1092 42.0838C34.3938 42.0838 33 40.69 33 38.9747C33.2144 30.1832 40.3977 23 49.1891 23C53.5848 23 57.5516 24.7154 60.6608 27.8246Z" fill="white"/>
</svg>
