<svg width="100" height="100" viewBox="0 0 100 100" fill="none" xmlns="http://www.w3.org/2000/svg">
<path d="M2.5 50C2.5 23.7557 23.7557 2.5 50 2.5C76.2443 2.5 97.5 23.7557 97.5 50C97.5 76.2443 76.2443 97.5 50 97.5C23.7557 97.5 2.5 76.2443 2.5 50Z" stroke="white" stroke-width="5"/>
<path fill-rule="evenodd" clip-rule="evenodd" d="M77.0098 50.9987C77.0098 64.7686 65.8065 76 52.0085 76C42.45 76 33.8673 70.6753 29.6037 62.1232C28.9427 60.8236 29.4993 59.2359 30.7963 58.5725C32.0934 57.9116 33.6836 58.4408 34.3445 59.7652C37.7088 66.5185 44.4868 70.7027 52.0086 70.7027C62.8665 70.7027 71.7126 61.8573 71.7126 50.9987C71.7126 40.1401 62.8672 31.2946 52.0086 31.2946C45.3646 31.2946 39.2996 34.5595 35.6567 39.9759L38.8471 38.8429C40.2236 38.3659 41.7591 39.0815 42.2362 40.458C42.7132 41.8346 41.9977 43.3726 40.6211 43.8472L30.9806 47.2636C30.6899 47.3705 30.3992 47.4227 30.106 47.4227C29.0202 47.4227 27.989 46.7344 27.5641 45.6485L24.1476 36.0106C23.6706 34.6316 24.3862 33.096 25.7627 32.619C27.1418 32.1171 28.6773 32.8575 29.1543 34.2341L30.5458 38.155C35.0555 30.6142 43.1084 26 52.0086 26C65.8059 26 77.0098 37.2281 77.0098 50.9987Z" fill="white"/>
</svg>
