<?xml version="1.0" encoding="utf-8"?>
<!-- Generator: Adobe Illustrator 28.0.0, SVG Export Plug-In . SVG Version: 6.00 Build 0)  -->
<svg version="1.1" id="Back_in_time" xmlns="http://www.w3.org/2000/svg" xmlns:xlink="http://www.w3.org/1999/xlink" x="0px"
	 y="0px" viewBox="0 0 20 20" style="enable-background:new 0 0 20 20;" xml:space="preserve">
<style type="text/css">
	.st0{fill:#FFFFFF;}
</style>
<path class="st0" d="M11,1.8c-4.4,0-8.1,3.6-8.2,8V10H0.5l3.6,3.9L7.5,10H4.9V9.8C5,6.5,7.7,3.8,11,3.8c3.4,0,6.1,2.8,6.1,6.2
	s-2.7,6.1-6.1,6.1c-1.4,0-2.6-0.4-3.6-1.2L6,16.5c1.4,1.1,3.1,1.7,5,1.7c4.5,0,8.2-3.7,8.2-8.2S15.5,1.8,11,1.8z M10,5v5
	c0,0.1,0,0.3,0.1,0.4c0.1,0.1,0.1,0.2,0.2,0.3l3.2,3.2c0.3-0.2,0.6-0.4,0.8-0.6L12,11V5H10z"/>
</svg>
